# xmcd CD database file
#
# Track frame offsets:
#	150
#	19858
#	36025
#	61178
#	82975
#	103480
#	121473
#	138263
#	158298
#	175270
#	193965
#	207348
#	229745
#	248973
#
# Disc length: 3660 seconds
#
# Revision: 1
# Processed by: cddbd v1.5PL3 Copyright (c) Steve Scherf et al.
# Submitted via: CDex 1.51
#
DISCID=bb0e4a0e
DTITLE=Avex Dance Matrix 95 LIVE - DISCO WEEK in VELFARRE
DYEAR=1995
DGENRE=Techno
TTITLE0=HERE COMES THE NIGHT／SAMANTHA GILLES
TTITLE1=DARK IN THE NIGHT／MAIO ＆ CO.
TTITLE2=F.A.Y.／METAL MINDED MANIACS
TTITLE3=MOVE IT UP／CAPPELLA
TTITLE4=EVERY WEDNESDAY／海堂 有功
TTITLE5=I WANT YOU／SECRET LIFE
TTITLE6=TOTAL ECLIPSE OF THE HEART／NICKI FRENCH
TTITLE7=BABY BREAK IT UP!／MICHAEL FORTUNATI
TTITLE8=DIVE TO PARADISE／EUROGROOVE
TTITLE9=風に叫ぶ 〜 Energy Guy のテーマ／m.c.AT
TTITLE10=MOVE IT TO THE RHYTHM／TECHNOTRONIC Featuring Ya Kid K
TTITLE11=STYLE／JAKI GRAHAM
TTITLE12=I FOUND LOVE／BANANARAMA
TTITLE13=EVERYBODY／JOHN ROBINSON
EXTD=YEAR: 1995
EXTT0=
EXTT1=
EXTT2=
EXTT3=
EXTT4=
EXTT5=
EXTT6=
EXTT7=
EXTT8=
EXTT9=
EXTT10=
EXTT11=
EXTT12=
EXTT13=
PLAYORDER=
